# xmcd
#
# Track frame offsets:
#	150
#	12692
#	28363
#	37067
#	52967
#	69466
#	78534
#	98749
#	106733
#	117441
#	132628
#
# Disc length: 2272 seconds
#
# Revision: 1
# Processed by: cddbd v1.5.2PL0 Copyright (c) Steve Scherf et al.
# Submitted via: audiograbber 1.83.01
#
DISCID=9b08de0b
DTITLE=Kingdom Heirs - The Spirit of Christmas
DYEAR=2004
DGENRE=Gospel
TTITLE0=Only God Would Think of That
TTITLE1=I'll Be Home for Christmas
TTITLE2=Let it Snow
TTITLE3=Have Yourself a Merry Little Christmas
TTITLE4=Who Would Imagine a King
TTITLE5=Santa Claus is Coming to Town
TTITLE6=That Spirit of Christmas
TTITLE7=Mister Grinch
TTITLE8=Holly Jolly Christmas
TTITLE9=Mary, Did You Know
TTITLE10=I Still Believe in Santa Claus
EXTD=
EXTT0=
EXTT1=
EXTT2=
EXTT3=
EXTT4=
EXTT5=
EXTT6=
EXTT7=
EXTT8=
EXTT9=
EXTT10=
PLAYORDER=
